<?xml version="1.0" encoding="UTF-8"?>
<svg width="800" height="500" viewBox="0 0 800 500" fill="none" xmlns="http://www.w3.org/2000/svg">
    <!-- Background -->
    <rect width="800" height="500" rx="20" fill="white"/>
    
    <!-- Header -->
    <rect width="800" height="60" fill="#F9FAFB"/>
    <circle cx="40" cy="30" r="15" fill="url(#gradient)"/>
    <rect x="70" y="20" width="120" height="20" rx="4" fill="#E5E7EB"/>
    <rect x="650" y="20" width="100" height="20" rx="4" fill="#E5E7EB"/>
    
    <!-- Sidebar -->
    <rect width="200" height="440" y="60" fill="#F3F4F6"/>
    <rect x="20" y="80" width="160" height="40" rx="8" fill="url(#gradient)"/>
    <rect x="20" y="140" width="160" height="40" rx="8" fill="#E5E7EB"/>
    <rect x="20" y="200" width="160" height="40" rx="8" fill="#E5E7EB"/>
    <rect x="20" y="260" width="160" height="40" rx="8" fill="#E5E7EB"/>
    
    <!-- Main Content -->
    <!-- Chart 1 -->
    <rect x="240" y="80" width="520" height="200" rx="12" fill="#F9FAFB"/>
    <rect x="260" y="100" width="480" height="160" rx="8" fill="#E5E7EB"/>
    <!-- Chart Lines -->
    <path d="M280 200 L320 180 L360 190 L400 150 L440 170 L480 140" stroke="url(#gradient)" stroke-width="3" fill="none"/>
    <path d="M280 220 L320 200 L360 210 L400 170 L440 190 L480 160" stroke="#9CA3AF" stroke-width="3" fill="none"/>
    
    <!-- Stats Cards -->
    <rect x="240" y="300" width="160" height="120" rx="12" fill="#F9FAFB"/>
    <rect x="260" y="320" width="120" height="20" rx="4" fill="#E5E7EB"/>
    <rect x="260" y="360" width="80" height="40" rx="4" fill="url(#gradient)"/>
    
    <rect x="420" y="300" width="160" height="120" rx="12" fill="#F9FAFB"/>
    <rect x="440" y="320" width="120" height="20" rx="4" fill="#E5E7EB"/>
    <rect x="440" y="360" width="80" height="40" rx="4" fill="url(#gradient)"/>
    
    <rect x="600" y="300" width="160" height="120" rx="12" fill="#F9FAFB"/>
    <rect x="620" y="320" width="120" height="20" rx="4" fill="#E5E7EB"/>
    <rect x="620" y="360" width="80" height="40" rx="4" fill="url(#gradient)"/>
    
    <!-- Recent Transactions -->
    <rect x="240" y="440" width="520" height="60" rx="12" fill="#F9FAFB"/>
    <rect x="260" y="460" width="480" height="20" rx="4" fill="#E5E7EB"/>
    
    <!-- Gradient Definition -->
    <defs>
        <linearGradient id="gradient" x1="0" y1="0" x2="200" y2="200" gradientUnits="userSpaceOnUse">
            <stop offset="0%" stop-color="#4F46E5"/>
            <stop offset="100%" stop-color="#7C3AED"/>
        </linearGradient>
    </defs>
</svg> 